Coordinates
version=1
nRows=24
nColumns=22
inDegrees=yes

Units are S.I. units (second, meters, Newtons, ...)
If the header above contains a line with 'inDegrees', this indicates whether rotational values are in degrees (yes) or radians (no).

endheader
time	pelvis_tilt	pelvis_list	pelvis_rotation	pelvis_tx	pelvis_ty	pelvis_tz	hip_flexion_r	hip_adduction_r	hip_rotation_r	knee_angle_r	ankle_angle_r	subtalar_angle_r	hip_flexion_l	hip_adduction_l	hip_rotation_l	knee_angle_l	ankle_angle_l	subtalar_angle_l	lumbar_extension	lumbar_bending	lumbar_rotation
      2.80000000	     -0.90694078	     -2.22084429	     16.70031102	     -0.46887986	      0.93294716	      0.27716325	     27.63539275	      2.14330380	      5.26866451	    -15.98314339	      7.93113465	      6.61052862	     -3.71621340	      5.60977327	     13.81608597	    -19.17328915	     17.75706442	    -11.54925728	     -7.35316708	      1.89313649	     -6.94498404
      2.81000000	     -0.93558568	     -2.36635505	     16.91725203	     -0.46023867	      0.93186380	      0.27545370	     27.67555804	      2.43288386	      5.22014745	    -16.13666678	      7.71396463	      6.15307817	     -4.20711031	      5.39055303	     13.95694227	    -19.22547609	     17.90788842	    -11.46213632	     -7.25564454	      2.05081232	     -6.93400540
      2.82000000	     -0.99856868	     -2.55415684	     17.14466036	     -0.45156763	      0.93077026	      0.27373523	     27.78702390	      2.75594777	      5.21712261	    -16.53484483	      7.36027086	      5.92315451	     -4.59570658	      5.14246317	     14.07735112	    -19.37413020	     18.05376364	    -11.43949898	     -7.10793233	      2.24959497	     -6.95855618
      2.83000000	     -1.05184495	     -2.74254465	     17.36534395	     -0.44276534	      0.92977328	      0.27200975	     27.90707483	      3.09844100	      5.25532003	    -17.14725054	      6.93934855	      5.25794632	     -4.98163683	      4.89109610	     14.20282641	    -19.55316382	     18.14052476	    -11.27505165	     -6.96198038	      2.45234691	     -6.97799985
      2.84000000	     -1.10003997	     -2.96368300	     17.58698201	     -0.43389285	      0.92887639	      0.27026067	     28.03362080	      3.47702100	      5.35044120	    -17.89843133	      6.40241676	      4.75049666	     -5.30283491	      4.61318588	     14.31331785	    -19.84180913	     18.17598351	    -11.10066903	     -6.80840949	      2.69703927	     -7.00099319
      2.85000000	     -1.12778776	     -3.21984760	     17.81561850	     -0.42494748	      0.92813377	      0.26845452	     28.13045393	      3.89143566	      5.50659428	    -18.71584508	      5.78380420	      4.42955132	     -5.56029214	      4.30451277	     14.40442886	    -20.26361758	     18.11949532	    -10.91243460	     -6.66143839	      2.99653340	     -7.03346590
      2.86000000	     -1.16507574	     -3.46174602	     18.02613893	     -0.41588906	      0.92751169	      0.26660947	     28.25319726	      4.29568270	      5.67452658	    -19.64420753	      5.16155164	      3.82926378	     -5.75907910	      4.02536657	     14.47777272	    -20.78186229	     18.01391777	    -10.48757208	     -6.49654533	      3.28130985	     -7.06128563
      2.87000000	     -1.17531380	     -3.73510459	     18.23557670	     -0.40676517	      0.92708191	      0.26468925	     28.32837757	      4.72636496	      5.85819401	    -20.56255928	      4.55072744	      3.45812882	     -5.86688985	      3.72540188	     14.50538871	    -21.49084445	     17.78992756	    -10.02516993	     -6.34485210	      3.61965618	     -7.07660737
      2.88000000	     -1.17322584	     -4.00942994	     18.43724074	     -0.39757718	      0.92684098	      0.26269392	     28.36418367	      5.15048270	      6.04789800	    -21.46098092	      4.00654687	      3.14771690	     -5.87316959	      3.44203307	     14.48785338	    -22.39448177	     17.43952375	     -9.40191251	     -6.19765633	      3.97152243	     -7.08785787
      2.89000000	     -1.15933056	     -4.27741229	     18.62018846	     -0.38831475	      0.92679770	      0.26061950	     28.36060048	      5.55713798	      6.19772722	    -22.33172716	      3.56861882	      2.89847035	     -5.78034713	      3.18399674	     14.41843097	    -23.48760989	     16.93393185	     -8.58003935	     -6.05471722	      4.32771122	     -7.06073482
      2.90000000	     -1.13366728	     -4.53120260	     18.79184629	     -0.37904252	      0.92693537	      0.25847751	     28.30237607	      5.93523408	      6.31929690	    -23.14196520	      3.24641518	      2.74236306	     -5.54254897	      2.95549509	     14.23406130	    -24.83772278	     16.28347391	     -7.62103593	     -5.92627874	      4.67924666	     -7.02523042
      2.91000000	     -1.10003910	     -4.75749484	     18.94344271	     -0.36974424	      0.92726522	      0.25625928	     28.18459029	      6.26846386	      6.38002669	    -23.88587390	      3.07581845	      2.62285021	     -5.17659553	      2.76849980	     13.95907948	    -26.40833148	     15.42087027	     -6.39694028	     -5.80997095	      5.00848494	     -6.94046345
      2.92000000	     -1.04400575	     -4.94172095	     19.08866890	     -0.36043866	      0.92778418	      0.25397367	     27.97601287	      6.54326092	      6.36717416	    -24.54537885	      3.10363790	      2.52282745	     -4.68744753	      2.62116486	     13.57961406	    -28.20850888	     14.37223513	     -4.86649024	     -5.72827171	      5.29798463	     -6.81258180
      2.93000000	     -0.98534554	     -5.09942726	     19.21882118	     -0.35119466	      0.92844451	      0.25167358	     27.69644490	      6.78001158	      6.32663250	    -25.10133683	      3.22249316	      2.44457761	     -4.02499482	      2.48964586	     13.04007794	    -30.25339638	     13.11553506	     -3.18115479	     -5.66416131	      5.55742308	     -6.65098748
      2.94000000	     -0.91059015	     -5.22347854	     19.34494671	     -0.34201803	      0.92924689	      0.24936328	     27.32046304	      6.97299078	      6.23943863	    -25.53907543	      3.44919546	      2.35576643	     -3.21427838	      2.36042849	     12.35965952	    -32.50877608	     11.67332439	     -1.27203405	     -5.63525801	      5.77797595	     -6.44468939
      2.95000000	     -0.82264933	     -5.32469097	     19.46543679	     -0.33295052	      0.93014287	      0.24709039	     26.86891418	      7.14132036	      6.12219348	    -25.87980979	      3.75532936	      2.24176771	     -2.24803728	      2.20478490	     11.53080851	    -34.95315180	     10.08183043	      0.78943934	     -5.64098970	      5.96659233	     -6.19725668
      2.96000000	     -0.70767521	     -5.40105768	     19.59695934	     -0.32400898	      0.93114554	      0.24485145	     26.30359585	      7.28039661	      5.96093588	    -26.07671164	      4.11037055	      2.09215811	     -1.15102246	      2.00035502	     10.57022826	    -37.54792963	      8.40852284	      2.98221816	     -5.69782612	      6.12189132	     -5.91244187
      2.97000000	     -0.60499982	     -5.47710589	     19.71728852	     -0.31523710	      0.93212248	      0.24271703	     25.71059857	      7.41680540	      5.78020868	    -26.18979616	      4.51050014	      1.91432536	      0.12101421	      1.72157479	      9.46928132	    -40.27267855	      6.72325350	      5.11738180	     -5.76136262	      6.25139255	     -5.56271174
      2.98000000	     -0.48808120	     -5.55673487	     19.83054372	     -0.30664415	      0.93309791	      0.24069991	     25.06810525	      7.56345629	      5.57392429	    -26.22080610	      4.91590027	      1.71544015	      1.51756482	      1.34400119	      8.26439946	    -43.07643098	      5.11162606	      7.13696853	     -5.86253627	      6.36779497	     -5.14601611
      2.99000000	     -0.37438670	     -5.65230237	     19.92505759	     -0.29823206	      0.93402053	      0.23885919	     24.40172180	      7.73340967	      5.35607587	    -26.16756332	      5.27878334	      1.52442173	      3.04411288	      0.84306953	      6.94845815	    -45.92427025	      3.65395295	      8.84425951	     -5.97973484	      6.46880432	     -4.66194245
      3.00000000	     -0.22522862	     -5.73517614	     20.04648528	     -0.29001526	      0.93496790	      0.23706084	     23.65767608	      7.89721426	      5.14029880	    -26.03642522	      5.70403442	      1.31095257	      4.61285366	      0.26946893	      5.67611465	    -48.75175759	      2.39138609	     10.38269953	     -6.15861594	      6.55384459	     -4.17308209
      3.01000000	     -0.08073789	     -5.83938167	     20.13568117	     -0.28198101	      0.93584080	      0.23543352	     22.92207640	      8.09485689	      4.93407006	    -25.87207506	      6.08671279	      1.13634261	      6.26365530	     -0.41339901	      4.37054200	    -51.54027288	      1.37671965	     11.39760921	     -6.35049704	      6.63236809	     -3.60057202
      3.02000000	      0.08488043	     -5.95424011	     20.19654742	     -0.27409217	      0.93670001	      0.23392247	     22.16031712	      8.32197107	      4.74922989	    -25.67371097	      6.43492172	      1.02499098	      7.93133709	     -1.19026272	      3.06925992	    -54.23399545	      0.63002164	     11.87116629	     -6.58197301	      6.70966205	     -2.95192391
      3.03000000	      0.23656169	     -6.06173522	     20.24979022	     -0.26635435	      0.93751889	      0.23248806	     21.40193429	      8.54510016	      4.61028316	    -25.44860370	      6.79618781	      0.92639799	      9.63269292	     -2.00376868	      1.83768023	    -56.80447551	      0.15628558	     12.00933367	     -6.81460563	      6.75545677	     -2.29122983
